<?xml version="1.0" encoding="utf-8"?>
<!-- Generator: Adobe Illustrator 26.5.0, SVG Export Plug-In . SVG Version: 6.00 Build 0)  -->
<svg version="1.1" id="Layer_1" xmlns="http://www.w3.org/2000/svg" xmlns:xlink="http://www.w3.org/1999/xlink" x="0px" y="0px"
	 viewBox="0 0 521.4 595.3" enable-background="new 0 0 521.4 595.3" xml:space="preserve">
<g>
	<path fill="none" stroke="#000000" stroke-width="1.5" stroke-linecap="round" stroke-linejoin="round" stroke-miterlimit="10" d="
		M327.8,197c13.1,0.6,24.3,5.2,25.1,40.9c0.7,35.7-7,150.3-7,150.3s-61.2,4.8-94,4.8s-56,6.3-57.8-43.5
		c-1.8-49.7-8.8-136.7,8.5-146.3C219.8,193.7,301.6,195.9,327.8,197z"/>
	<path fill="none" stroke="#000000" stroke-width="1.5" stroke-linecap="round" stroke-linejoin="round" stroke-miterlimit="10" d="
		M319.1,196.7c0.2-5.4-3-8.1,5.5-14.2c8.5-6.1,11.1-32.8,7.6-65.4c-3.5-32.6-3.5-32.6-3.5-32.6s0.2-8.8-33.9-11.4
		s-66.1,1.5-71.8,11.4s-4.4,48.6-4.6,64.8s-6.6,12.9-7.2,0.2c-0.6-12.7-4.1-25.4,2.4-27.5c6.4-2,4.8,10.5,6.4,32.8s-2,25.1,6.6,29.8
		s7.2,12.7,7.2,12.7"/>
	<path fill="none" stroke="#000000" stroke-width="1.5" stroke-linecap="round" stroke-linejoin="round" stroke-miterlimit="10" d="
		M331.1,120.5c6.6-1.5,11.1,9.2,9.6,23.6c-1.5,14.4-6.3,19-9.6,13.6"/>
	<path fill="none" stroke="#000000" stroke-width="1.5" stroke-linecap="round" stroke-linejoin="round" stroke-miterlimit="10" d="
		M305.5,219.6c9.4-2.6,26.6,2.6,27.5,22.6c0.9,19.9-18.5,35-35.7,21.9C280.2,250.9,290.5,223.8,305.5,219.6z"/>
	<path fill="none" stroke="#000000" stroke-width="1.5" stroke-linecap="round" stroke-linejoin="round" stroke-miterlimit="10" d="
		M265.8,225.8c16,0.5,18.1,3.1,18.1,19s0,21.6-10.4,21.3c-10.4-0.3-54.5,1-56.8,0.8c-2.3-0.2-3.8,0.3-4.3-18.2s-4-23.1,17-22.9
		c21.1,0.2,50.4-1.8,54.5,3.1"/>
	<path fill="none" stroke="#000000" stroke-width="1.5" stroke-linecap="round" stroke-linejoin="round" stroke-miterlimit="10" d="
		M270.8,275.5c31.5,0.4,63.8-6.1,63.3,16.9c-0.6,22.9-0.6,66-1.9,74.3s-9.7,11.1-32.6,10.2c-22.9-0.8-71.6,1.9-79.9-2.8
		c-8.3-4.7-5-18-5.3-46.7c-0.3-28.7-10.2-51.3,8-52.2C240.6,274.4,261.4,275.3,270.8,275.5z"/>
	<path fill="none" stroke="#000000" stroke-width="1.5" stroke-linecap="round" stroke-linejoin="round" stroke-miterlimit="10" d="
		M295.3,391.5c-1.1,30.1,8.4,118.3,10.3,132.2c1.9,13.8-5,14.4,25.4,19.1c30.4,4.7,42.3,3.6,38.4-20.2c-3.9-23.8-15.8-43.9-27.6-45
		c-11.9-1.1-15.5,3.9-7.7,13.5c7.7,9.7,0.3-8.6-11.9-5.5c-12.2,3,14.7,23.8,11.9-16.3s-3.6-79.9-3.6-79.9"/>
	<path fill="none" stroke="#000000" stroke-width="1.5" stroke-linecap="round" stroke-linejoin="round" stroke-miterlimit="10" d="
		M251.9,393c3.3,26.8-7,103.7-7.4,124.3s-15.8,19.2-36.8,20.3c-21,1.1-40.2-0.4-37.6-9.6c2.6-9.2,17.7-40.2,32.4-45
		c14.7-4.8,25.8-7.7,27.6,8.5c1.8,16.2-7,35.4-2.9,23.9c4.1-11.4-22.8-16.9-17.7-42.4c5.2-25.4,7.7-81.2,7.7-81.2"/>
	<path fill="none" stroke="#000000" stroke-width="1.5" stroke-linecap="round" stroke-linejoin="round" stroke-miterlimit="10" d="
		M314.1,147.4c2,7.7-2,17.5-2,17.5s-16.9,5.3-39.2,5.3s-37-7.9-38-12.7c-0.9-4.8,0.7-14,0.7-14s13.3,7.6,33.7,8.8
		C289.8,153.7,298.1,151.7,314.1,147.4z"/>
	<path fill="none" stroke="#000000" stroke-width="1.5" stroke-linecap="round" stroke-linejoin="round" stroke-miterlimit="10" d="
		M261.6,140.1c0,0,15.7,2.3,25.4,0c-4.6-5.4-11.3-19.6-12.4-21.8C269.6,126.2,262,135.8,261.6,140.1z"/>
	<path fill="none" stroke="#000000" stroke-width="1.5" stroke-linecap="round" stroke-linejoin="round" stroke-miterlimit="10" d="
		M308.6,390.8c0.4,31.3,3.7,98.9,3.7,104.5c0,5.5-10.2,2.8-6.9,26.8"/>
	<path fill="none" stroke="#000000" stroke-width="1.5" stroke-linecap="round" stroke-linejoin="round" stroke-miterlimit="10" d="
		M236.4,393.3c1.1,31.4-6,104.2-6,104.2"/>
	<path fill="none" stroke="#000000" stroke-width="1.5" stroke-linecap="round" stroke-linejoin="round" stroke-miterlimit="10" d="
		M222.9,84.4c3.1-25.2,7.5-38,11.7-30.4s-0.1,19-3.6,21.7c-3.5,2.8,0-28.1,14.6-23.9c14.6,4.2-2.4,25-6.1,22.1
		c-3.7-2.9,6.8-28.7,16.2-19.9c9.4,8.8-1.8,18.7-4.2,18.2c-2.4-0.5,9.4-30.6,17.5-18.8s-5.5,23.6-5.7,16.2
		c-0.2-7.4,13.8-26.5,17.7-16.2c3.9,10.3-5.5,25.4-6.6,14s12.7-23.4,16.2-11.2s-2.2,22.1-4.4,12s8.7-25.1,13.3-14
		c4.6,11.1,7.2,26.7,0,14.7s4.2-26.2,9.9-11.8c5.7,14.4,4.1,24.9,0,15.8s-3.5-27.1,3.7-20.4c7.2,6.6,9,22.5,11.1,26.9"/>
	<path fill="none" stroke="#000000" stroke-width="1.5" stroke-linecap="round" stroke-linejoin="round" stroke-miterlimit="10" d="
		M292.4,99.3c5.9-2.7,21.3-3.9,26,6.9s-1.4,25.1-13,26.1c-11.6,1-19.6-0.9-21.8-14C281.4,105.2,287.9,101.4,292.4,99.3z"/>
	<path fill="none" stroke="#000000" stroke-width="1.5" stroke-linecap="round" stroke-linejoin="round" stroke-miterlimit="10" d="
		M257.3,99.7c4.7,4.3,10.8,18.4,2.9,26.5s-22.4,8.6-27.9,1c-5.5-7.6-5.9-20.4,0-25.8S250.3,93.4,257.3,99.7z"/>
	<path fill="none" stroke="#000000" stroke-width="1.5" stroke-linecap="round" stroke-linejoin="round" stroke-miterlimit="10" d="
		M296.2,101.6c3.7-1,13.3-2.7,17.5,4.8c4.2,7.5,1.5,17.1-5.3,20.3s-15.1,2.3-18.8-4.6C286,115.1,287.5,103.9,296.2,101.6z"/>
	<path fill="none" stroke="#000000" stroke-width="1.5" stroke-linecap="round" stroke-linejoin="round" stroke-miterlimit="10" d="
		M254.7,102.8c3.4,3.9,6.6,13.7,3.5,18.6c-3.2,4.8-12.3,9-18.3,5.3s-8.8-9.2-7-16.2c1.9-7,11.2-14.5,22.3-7.7"/>
	<path fill="none" stroke="#000000" stroke-width="1.5" stroke-linecap="round" stroke-linejoin="round" stroke-miterlimit="10" d="
		M239.9,152.4c4.8,4.2,22.8,5.4,37.7,5.4s28.9-2.8,31.2-4.1c2.3-1.3-0.9,0.5-0.5,4.1s-2.5,4.6-2.5,4.6s-13.7,3.7-33.9,2.7
		s-32-5.3-32.8-7.3C238.3,155.9,239.9,152.4,239.9,152.4z"/>
	<path fill="none" stroke="#000000" stroke-width="1.5" stroke-linecap="round" stroke-linejoin="round" stroke-miterlimit="10" d="
		M306.1,225.2c6.1-2.8,20.6,2.2,22.1,15.8s-7.5,23.4-19.2,21.8c-11.7-1.5-17.1-8.4-17-17.5C292.2,236.1,298.7,228.6,306.1,225.2z"/>
	<path fill="none" stroke="#000000" stroke-width="1.5" stroke-linecap="round" stroke-linejoin="round" stroke-miterlimit="10" d="
		M276,229.9c3.3,1.2,4.7,15.8,3.8,24c-0.9,8.2-1.2,8.5-13.8,9.1c-12.6,0.7-42.1,0-45.8,0s-4.5-5.9-4.7-18c-0.2-12-1.7-16,9.8-15.8
		s54.9,0.1,55.8,2.4"/>
	
		<line fill="none" stroke="#000000" stroke-width="1.5" stroke-linecap="round" stroke-linejoin="round" stroke-miterlimit="10" x1="345.9" y1="217.3" x2="345.9" y2="222.7"/>
	<path fill="none" stroke="#000000" stroke-width="1.5" stroke-linecap="round" stroke-linejoin="round" stroke-miterlimit="10" d="
		M345.4,228.6c0.5,0.2,0.9,3.6,0,4"/>
	<path fill="none" stroke="#000000" stroke-width="1.5" stroke-linecap="round" stroke-linejoin="round" stroke-miterlimit="10" d="
		M345.4,239c0.6,0.2,0.9,2.2,0,3.1"/>
	<path fill="none" stroke="#000000" stroke-width="1.5" stroke-linecap="round" stroke-linejoin="round" stroke-miterlimit="10" d="
		M344.8,248.8c0.6,0,0.7,3.5,0,3.6"/>
	<path fill="none" stroke="#000000" stroke-width="1.5" stroke-linecap="round" stroke-linejoin="round" stroke-miterlimit="10" d="
		M344.8,259.5c1,0.6,0.5,3.4,0,3.4"/>
	<path fill="none" stroke="#000000" stroke-width="1.5" stroke-linecap="round" stroke-linejoin="round" stroke-miterlimit="10" d="
		M344.4,269.6c0.8,0.9,1.6,3.4,0.5,3.8"/>
	<path fill="none" stroke="#000000" stroke-width="1.5" stroke-linecap="round" stroke-linejoin="round" stroke-miterlimit="10" d="
		M343.8,280.6c0.8,1.3,0.7,2.5,0,3.2"/>
	<path fill="none" stroke="#000000" stroke-width="1.5" stroke-linecap="round" stroke-linejoin="round" stroke-miterlimit="10" d="
		M343.8,291.2c0.6,0.6,0.6,2.7-0.4,3.4"/>
	<path fill="none" stroke="#000000" stroke-width="1.5" stroke-linecap="round" stroke-linejoin="round" stroke-miterlimit="10" d="
		M343.4,301.5c0.2,1,0.4,2.8-0.6,3.3"/>
	<path fill="none" stroke="#000000" stroke-width="1.5" stroke-linecap="round" stroke-linejoin="round" stroke-miterlimit="10" d="
		M342.9,312.7c0.6,1.5-0.1,2.5-0.4,2.7"/>
	<path fill="none" stroke="#000000" stroke-width="1.5" stroke-linecap="round" stroke-linejoin="round" stroke-miterlimit="10" d="
		M342.5,323.7c0.2,1.8-1,2.8-1,2.8"/>
	<path fill="none" stroke="#000000" stroke-width="1.5" stroke-linecap="round" stroke-linejoin="round" stroke-miterlimit="10" d="
		M342,334.6c0.8,0.8-0.5,3.6-0.5,3.6"/>
	<path fill="none" stroke="#000000" stroke-width="1.5" stroke-linecap="round" stroke-linejoin="round" stroke-miterlimit="10" d="
		M341.5,347.1c0.3,1.3-0.2,3.2-0.7,3.4"/>
	<path fill="none" stroke="#000000" stroke-width="1.5" stroke-linecap="round" stroke-linejoin="round" stroke-miterlimit="10" d="
		M341.5,358.9c-0.1,0.9-0.5,3.3-0.7,3.4"/>
	<path fill="none" stroke="#000000" stroke-width="1.5" stroke-linecap="round" stroke-linejoin="round" stroke-miterlimit="10" d="
		M341.6,370.1c0.5,1.2-0.8,3.4-0.8,3.4"/>
	<path fill="none" stroke="#000000" stroke-width="1.5" stroke-linecap="round" stroke-linejoin="round" stroke-miterlimit="10" d="
		M341.2,381.1c-0.1,0.8-0.7,3.2-1.8,2.9"/>
	
		<line fill="none" stroke="#000000" stroke-linecap="round" stroke-linejoin="round" stroke-miterlimit="10" x1="312.1" y1="232.2" x2="312.1" y2="229.6"/>
	
		<line fill="none" stroke="#000000" stroke-linecap="round" stroke-linejoin="round" stroke-miterlimit="10" x1="317.5" y1="232.5" x2="319.2" y2="230.9"/>
	
		<line fill="none" stroke="#000000" stroke-linecap="round" stroke-linejoin="round" stroke-miterlimit="10" x1="320.8" y1="237.5" x2="322.8" y2="235.8"/>
	
		<line fill="none" stroke="#000000" stroke-linecap="round" stroke-linejoin="round" stroke-miterlimit="10" x1="321.8" y1="243" x2="324.9" y2="243"/>
	
		<line fill="none" stroke="#000000" stroke-linecap="round" stroke-linejoin="round" stroke-miterlimit="10" x1="320.2" y1="249.1" x2="322.3" y2="251"/>
	
		<line fill="none" stroke="#000000" stroke-linecap="round" stroke-linejoin="round" stroke-miterlimit="10" x1="315.8" y1="253.6" x2="317.1" y2="255.8"/>
	
		<line fill="none" stroke="#000000" stroke-linecap="round" stroke-linejoin="round" stroke-miterlimit="10" x1="310.2" y1="254.7" x2="310.2" y2="257.6"/>
	
		<line fill="none" stroke="#000000" stroke-linecap="round" stroke-linejoin="round" stroke-miterlimit="10" x1="304.9" y1="254" x2="302.7" y2="256.1"/>
	
		<line fill="none" stroke="#000000" stroke-linecap="round" stroke-linejoin="round" stroke-miterlimit="10" x1="301.6" y1="250" x2="298.3" y2="252.3"/>
	<path fill="none" stroke="#000000" stroke-linecap="round" stroke-linejoin="round" stroke-miterlimit="10" d="M300,244.1
		c0,0-3.8-0.2-3.6,0"/>
	
		<line fill="none" stroke="#000000" stroke-linecap="round" stroke-linejoin="round" stroke-miterlimit="10" x1="301.6" y1="237.7" x2="299.1" y2="235.8"/>
	
		<line fill="none" stroke="#000000" stroke-linecap="round" stroke-linejoin="round" stroke-miterlimit="10" x1="306.3" y1="233.6" x2="304.9" y2="231.4"/>
	<path fill="none" stroke="#000000" stroke-width="1.5" stroke-linecap="round" stroke-linejoin="round" stroke-miterlimit="10" d="
		M308.5,244.1l-4.7,4l3.6,2.9l2.8-4.9c1.9,1,4.1-0.7,4.1-2.7s0-2,0-2s3.5-3.2,3.8-3.9c0.3-0.7,0-2.1-1.6-0.8
		c-1.6,1.3-4.9,3.9-4.9,3.9C309.5,239.8,307,242.7,308.5,244.1z"/>
	<path fill="none" stroke="#000000" stroke-width="1.5" stroke-linecap="round" stroke-linejoin="round" stroke-miterlimit="10" d="
		M301.8,282.2c7.9-1.2,23.8-1.7,24.9,4.6c1.1,6.3,0.6,54.5,0,60.9c-0.6,6.4,2.1,17.7-7.6,20.9s-56.9,0.4-69.6,0
		c-12.7-0.4-23.9,0.7-27.1-2.6s-2.1-23.4-1.8-40.9c0.3-17.5-3-34.7-0.4-37.8c2.6-3,2.5-6.1,33.7-5.9c31.2,0.2,56.5,0.8,56.5,0.8"/>
	<path fill="none" stroke="#000000" stroke-linecap="round" stroke-linejoin="round" stroke-miterlimit="10" d="M220.2,352
		c0,0,89.4-2.6,106.4,0"/>
	<path fill="none" stroke="#000000" stroke-linecap="round" stroke-linejoin="round" stroke-miterlimit="10" d="M260.4,347.3h8.7
		c0,0,0.7-9.3-0.2-11.9c-0.9-2.5-8.1-3.6-8.5,0.7C260,340.4,260.4,347.3,260.4,347.3z"/>
	<path fill="none" stroke="#000000" stroke-linecap="round" stroke-linejoin="round" stroke-miterlimit="10" d="M275.7,347.3
		l8.4-0.2c0,0,0.2-8.8,0-10.6c-0.2-1.8-1-3.9-4.9-3.7c-4,0.2-3.8,3.5-3.5,6.7C276,342.7,275.7,347.3,275.7,347.3z"/>
	<path fill="none" stroke="#000000" stroke-linecap="round" stroke-linejoin="round" stroke-miterlimit="10" d="M288.9,347.3h8.7
		c0,0,0.1-6.4,0-9.6c-0.1-3.2-2.1-4.9-5.2-4.9c-3.1,0-3.8,1.7-3.9,5.6S288.9,347.3,288.9,347.3z"/>
	<polyline fill="none" stroke="#000000" stroke-linecap="round" stroke-linejoin="round" stroke-miterlimit="10" points="
		304.5,350.8 304.5,336.7 322.1,335.6 322.1,351.4 	"/>
	
		<line fill="none" stroke="#000000" stroke-linecap="round" stroke-linejoin="round" stroke-miterlimit="10" x1="313.3" y1="336.2" x2="312.8" y2="351.1"/>
	<polyline fill="none" stroke="#000000" stroke-linecap="round" stroke-linejoin="round" stroke-miterlimit="10" points="316.3,336 
		316.3,333.6 319,333.6 319,336 	"/>
	<polyline fill="none" stroke="#000000" stroke-linecap="round" stroke-linejoin="round" stroke-miterlimit="10" points="
		310.3,336.3 310.3,334.5 307.4,334.1 307.4,336.5 	"/>
	<polyline fill="none" stroke="#000000" stroke-linecap="round" stroke-linejoin="round" stroke-miterlimit="10" points="
		295.3,347.3 295.3,348.9 297.6,348.9 297.6,350.8 	"/>
	<polyline fill="none" stroke="#000000" stroke-linecap="round" stroke-linejoin="round" stroke-miterlimit="10" points="
		291.7,347.3 291.7,348.7 288.9,348.7 288.9,350.8 	"/>
	<polyline fill="none" stroke="#000000" stroke-linecap="round" stroke-linejoin="round" stroke-miterlimit="10" points="
		281.7,347.1 281.7,348.6 284.2,348.6 284.2,350.9 	"/>
	<polyline fill="none" stroke="#000000" stroke-linecap="round" stroke-linejoin="round" stroke-miterlimit="10" points="
		278.4,347.2 278.4,348.6 275.5,348.6 275.5,350.9 	"/>
	<polyline fill="none" stroke="#000000" stroke-linecap="round" stroke-linejoin="round" stroke-miterlimit="10" points="
		266.7,347.3 266.7,348.7 269,348.7 269,350.8 	"/>
	<polyline fill="none" stroke="#000000" stroke-linecap="round" stroke-linejoin="round" stroke-miterlimit="10" points="
		262.7,347.3 262.7,348.7 260.2,348.7 260.2,350.9 	"/>
	<polyline fill="none" stroke="#000000" stroke-linecap="round" stroke-linejoin="round" stroke-miterlimit="10" points="
		253.9,351.2 253.9,332.3 220.5,331.9 	"/>
	<polyline fill="none" stroke="#000000" stroke-linecap="round" stroke-linejoin="round" stroke-miterlimit="10" points="227.4,332 
		227.4,329.2 236.1,329.2 236.1,332.1 	"/>
	<polyline fill="none" stroke="#000000" stroke-linecap="round" stroke-linejoin="round" stroke-miterlimit="10" points="
		243.2,332.2 243.2,329.2 249.9,329.2 249.9,332.2 	"/>
	<path fill="none" stroke="#000000" stroke-width="1.5" stroke-linecap="round" stroke-linejoin="round" stroke-miterlimit="10" d="
		M256.3,196.2v-6.4c0,0,18.4-3.5,32.4,0c14,3.5,12.6,2.4,12.6,2.4l-0.4,3.9"/>
	<polyline fill="none" stroke="#000000" stroke-linecap="round" stroke-linejoin="round" stroke-miterlimit="10" points="
		250.5,281.5 251.2,289.7 222.3,289.7 222.3,285 	"/>
	<path fill="none" stroke="#000000" stroke-linecap="round" stroke-linejoin="round" stroke-miterlimit="10" d="M225.9,289.7
		l-1.3,34.5c0,0,20.2-0.3,23.5,0.6c-0.7-11.4,1-30.4,0.8-35"/>
	<polyline fill="none" stroke="#000000" stroke-linecap="round" stroke-linejoin="round" stroke-miterlimit="10" points="
		236.8,289.7 236.1,319.7 238.3,320.5 239.2,289.7 	"/>
	<path fill="none" stroke="#000000" stroke-linecap="round" stroke-linejoin="round" stroke-miterlimit="10" d="M312.1,293.8
		c1.1,0.1,4.1,1.5,3.8,4.1s-1.5,4.6-4.3,3.7c-2.8-0.9-3.7-2.2-3.5-4.3C308.4,295.3,309.6,293.6,312.1,293.8z"/>
	<path fill="none" stroke="#000000" stroke-linecap="round" stroke-linejoin="round" stroke-miterlimit="10" d="M312.3,291.2
		c-2.2-0.5-6.3,1.3-7,4.2s-0.3,5.4,1.9,7.2c2.2,1.8,5.5,2.8,7.7,1.4c2.2-1.4,3.6-2.6,3.7-5.5S317.7,292.4,312.3,291.2z"/>
	<path fill="none" stroke="#000000" stroke-linecap="round" stroke-linejoin="round" stroke-miterlimit="10" d="M327.3,304.4
		l-1.7,2.2c0,0-1.8-2.2-2.2-1.4c-0.4,0.8-2.8,2.1-2.8,2.1l1.3,3c0,0-2.9,1.8-3.8,1.9c-0.9,0.1-2-2.6-2-2.6l-2.4,0.3l-0.5,3.4h-3.8
		c0,0-0.2-0.9-0.2-2.9c-1.1,0-3.1-1-3.1-1l-1.5,2.5l-4.1-2.4c0,0,0.6-1.3,1.2-2.9c-1.3-1-1.5-2.9-1.5-2.9l-3.4,0.9l-1.1-3.9
		c0,0,3-1,2.5-2.1c-0.5-1.2,0.8-4,0.8-4s-2.5-1.5-2.7-1.6c-0.2-0.2,0.5-1.4,1.2-2.9c0.7-1.5,0.8-1,3.1-0.5s2.9-1.7,4.1-2.4l-2.2-2.8
		l1.9-1.9"/>
	<polyline fill="none" stroke="#000000" stroke-linecap="round" stroke-linejoin="round" stroke-miterlimit="10" points="
		308.8,282.2 314.3,287.9 316.4,287.9 316.4,290.7 319.1,290.9 319.4,293.8 322.8,293.8 321.5,296.3 324.1,297.4 324.1,299 
		327.3,302.2 	"/>
	<path fill="none" stroke="#000000" stroke-linecap="round" stroke-linejoin="round" stroke-miterlimit="10" d="M256.7,296.3
		c2-0.8,6.9,0.1,7.5,4.6c0.6,4.5-3,6.9-5.7,6.4c-2.7-0.5-6.3-0.1-6.4-4.3C252.1,298.8,254.7,297,256.7,296.3z"/>
	<path fill="none" stroke="#000000" stroke-linecap="round" stroke-linejoin="round" stroke-miterlimit="10" d="M258.2,299.8
		c1.7,1,2.2,3,0.7,3.5c-1.5,0.5-2.7,0.3-2.6-1.4C256.4,300.1,257.5,299.3,258.2,299.8z"/>
	<path fill="none" stroke="#000000" stroke-linecap="round" stroke-linejoin="round" stroke-miterlimit="10" d="M258.1,312.1
		c1.4-0.1,4.3-0.5,5.5,2.9s0.4,6.2-2.2,7.8c-2.6,1.6-7.3,0.4-8.7-2.9C251.4,316.6,254.5,312.4,258.1,312.1z"/>
	<path fill="none" stroke="#000000" stroke-linecap="round" stroke-linejoin="round" stroke-miterlimit="10" d="M257.6,315.6
		c1.1-0.4,3.3,0.9,2.6,2.8s-2.5,2.2-3.4,0.9C255.9,318.1,255.7,316.3,257.6,315.6z"/>
	<path fill="none" stroke="#000000" stroke-linecap="round" stroke-linejoin="round" stroke-miterlimit="10" d="M239,354
		c1.4-0.1,4.3-0.5,5.5,2.9s0.4,6.2-2.2,7.8s-7.3,0.4-8.7-2.9C232.3,358.4,235.5,354.3,239,354z"/>
	<path fill="none" stroke="#000000" stroke-linecap="round" stroke-linejoin="round" stroke-miterlimit="10" d="M238.5,357.5
		c1.1-0.4,3.3,0.9,2.6,2.8c-0.6,1.9-2.5,2.2-3.4,0.9C236.9,359.9,236.7,358.1,238.5,357.5z"/>
	<path fill="none" stroke="#000000" stroke-linecap="round" stroke-linejoin="round" stroke-miterlimit="10" d="M263.5,304.8
		c0.1,3.4-0.3,9.4-0.3,9.4"/>
	<path fill="none" stroke="#000000" stroke-linecap="round" stroke-linejoin="round" stroke-miterlimit="10" d="M253,305.5
		c-0.4,4.1,0,10.4,0,10.4"/>
	<path fill="none" stroke="#000000" stroke-linecap="round" stroke-linejoin="round" stroke-miterlimit="10" d="M298.6,296.2
		c-5,1.2-21.2,0-21.2,0s-0.6-9.8,0-11.2c0.6-1.4,25.8,0.4,25.8,0.4"/>
	<path fill="none" stroke="#000000" stroke-linecap="round" stroke-linejoin="round" stroke-miterlimit="10" d="M281.8,284.4
		c-0.5,2.6,0,12,0,12"/>
	<path fill="none" stroke="#000000" stroke-linecap="round" stroke-linejoin="round" stroke-miterlimit="10" d="M277.1,288.3h-5.9
		v-3c0,0-2.4-0.4-3.7-0.4s-2.1,1.2-2.1,1.2l-0.3,7.6l1.2,1.3h4.2l0.6-2.8l6.1,0.6"/>
	<path fill="none" stroke="#000000" stroke-linecap="round" stroke-linejoin="round" stroke-miterlimit="10" d="M258.9,358.1
		c2.2-0.6,14.9-0.5,16.6,0c1.7,0.5,0.3,2.3-0.9,2.3s-12.3-0.3-14.8,0S256.4,358.8,258.9,358.1z"/>
	<path fill="none" stroke="#000000" stroke-linecap="round" stroke-linejoin="round" stroke-miterlimit="10" d="M296.5,358.1
		c2.2-0.6,14.9-0.5,16.6,0c1.7,0.5,0.3,2.3-0.9,2.3s-12.3-0.3-14.8,0S294,358.8,296.5,358.1z"/>
	<path fill="none" stroke="#000000" stroke-linecap="round" stroke-linejoin="round" stroke-miterlimit="10" d="M292.2,303.2
		c2.8,2.1,5,11.8,3.6,16.2c-1.4,4.4-6.5,11.5-16.9,11.3s-11.8-8.2-12-13.2c-0.3-5-1.2-13.1,6.6-15.3
		C281.2,300,286.7,299.1,292.2,303.2z"/>
	<path fill="none" stroke="#000000" stroke-linecap="round" stroke-linejoin="round" stroke-miterlimit="10" d="M281.5,309.5
		c2.6,0.5,5.7,2.3,4.4,7c-1.2,4.7-4.4,4.8-6.4,4c-2.1-0.8-5.5-3.2-3.9-6.6S278.8,309,281.5,309.5z"/>
	<path fill="none" stroke="#000000" stroke-linecap="round" stroke-linejoin="round" stroke-miterlimit="10" d="M283.3,310
		c1-2.4,0.9-5.3,5.2-4.5s5.9,0.9,5.3,5.2c-0.6,4.3-2.8,5-4.4,5.2c-1.6,0.2-3.2-1.4-3.2-1.4"/>
	<path fill="none" stroke="#000000" stroke-linecap="round" stroke-linejoin="round" stroke-miterlimit="10" d="M285.6,317.4
		c1.8,0.1,3.8-0.3,4.7,2.1s1.6,4.2-1.1,6.4c-2.6,2.2-6.3,3-7.7,0c-1.4-3-0.8-5.2-0.8-5.2"/>
	<path fill="none" stroke="#000000" stroke-linecap="round" stroke-linejoin="round" stroke-miterlimit="10" d="M278.8,320.2
		c-0.5,2.6-1.8,5.3-5,5.6c-3.1,0.4-5.4-2.2-5.2-5c0.2-2.7,2-6.3,6.5-4.9"/>
	<path fill="none" stroke="#000000" stroke-linecap="round" stroke-linejoin="round" stroke-miterlimit="10" d="M275.8,313.3
		c-2.8-0.4-5.2-2.6-5.5-4.4s-0.7-5.1,3.1-5.9s8.4,0.3,8,6.5"/>
	
		<line fill="none" stroke="#000000" stroke-width="1.5" stroke-linecap="round" stroke-linejoin="round" stroke-miterlimit="10" x1="274.3" y1="157.8" x2="274.3" y2="165.2"/>
	
		<line fill="none" stroke="#000000" stroke-width="1.5" stroke-linecap="round" stroke-linejoin="round" stroke-miterlimit="10" x1="293.2" y1="156.9" x2="293.5" y2="164.5"/>
	
		<line fill="none" stroke="#000000" stroke-width="1.5" stroke-linecap="round" stroke-linejoin="round" stroke-miterlimit="10" x1="256.8" y1="156.9" x2="256.3" y2="163.5"/>
	
		<line fill="none" stroke="#000000" stroke-width="1.5" stroke-linecap="round" stroke-linejoin="round" stroke-miterlimit="10" x1="247.4" y1="155.5" x2="246.6" y2="161.3"/>
	
		<line fill="none" stroke="#000000" stroke-width="1.5" stroke-linecap="round" stroke-linejoin="round" stroke-miterlimit="10" x1="265" y1="157.5" x2="264.6" y2="164.5"/>
	
		<line fill="none" stroke="#000000" stroke-width="1.5" stroke-linecap="round" stroke-linejoin="round" stroke-miterlimit="10" x1="283.6" y1="157.8" x2="283.7" y2="165.2"/>
	
		<line fill="none" stroke="#000000" stroke-width="1.5" stroke-linecap="round" stroke-linejoin="round" stroke-miterlimit="10" x1="300.6" y1="155.9" x2="301.3" y2="163.4"/>
	<path fill="none" stroke="#000000" stroke-linecap="round" stroke-linejoin="round" stroke-miterlimit="10" d="M302.9,123.5
		c0.4-2.2,1.1-14.1,0.6-16.6c-0.5-2.5-5.1-1.2-5.1-1.2s-1.5,15.3-0.6,17C298.7,124.5,301.5,123.8,302.9,123.5z"/>
	<path fill="none" stroke="#000000" stroke-linecap="round" stroke-linejoin="round" stroke-miterlimit="10" d="M247.7,106.3
		c0.6,2.7,0.8,14.7,0.6,16.4c-2.9,0-5.4,0-5.4,0s-0.2-13.7-0.3-15.9C244.5,105.5,247.7,106.3,247.7,106.3z"/>
	<path fill="none" stroke="#000000" stroke-width="1.5" stroke-linecap="round" stroke-linejoin="round" stroke-miterlimit="10" d="
		M452.9,136.6c0,0-0.2-3.8,5.2-4.2s8.8-5.2,8.5-7.8c-0.2-2.6-5.2-3.9-10.1-2.1c-4.9,1.8-14.8,12-11.9,19.3
		c2.5,6.1,5.8,17.6,14.1,20.9c8.3,3.4,19.4-7.2,19.4-7.2"/>
	<path fill="none" stroke="#000000" stroke-width="1.5" stroke-linecap="round" stroke-linejoin="round" stroke-miterlimit="10" d="
		M462.6,121.6c7.9-8.1,16.6-20.3,21.6-18.5s3.8,11.6-3.4,18.5c-7.2,6.9-9,7.7-9,7.7"/>
	<path fill="none" stroke="#000000" stroke-width="1.5" stroke-linecap="round" stroke-linejoin="round" stroke-miterlimit="10" d="
		M476.1,126.1c3.6-3.4,15.7,5.1,13.9,15.2c-1.8,10.1-15,18.9-23.3,15.1s-7-15.5-4.1-19.1S476.1,126.1,476.1,126.1z"/>
	<path fill="none" stroke="#000000" stroke-width="1.5" stroke-linecap="round" stroke-linejoin="round" stroke-miterlimit="10" d="
		M460.4,146.5c4.4-2,12.2-5.3,13.9-9.1"/>
	<path fill="none" stroke="#000000" stroke-width="1.5" stroke-linecap="round" stroke-linejoin="round" stroke-miterlimit="10" d="
		M467.3,156.7c7.1-4.6,14.3-13.6,14.3-13.6"/>
	<path fill="none" stroke="#000000" stroke-width="1.5" stroke-linecap="round" stroke-linejoin="round" stroke-miterlimit="10" d="
		M445.2,143c-7.3,9.9-34.7,26.1-48.4,33.3c-13.8,7.2-44.9,17.4-51.1,29.5"/>
	<path fill="none" stroke="#000000" stroke-width="1.5" stroke-linecap="round" stroke-linejoin="round" stroke-miterlimit="10" d="
		M462.6,163.3c-3.4,10.9-23.5,25.1-36.4,37c-12.9,12-56.9,40.6-73.5,40.2"/>
	<path fill="none" stroke="#000000" stroke-width="1.5" stroke-linecap="round" stroke-linejoin="round" stroke-miterlimit="10" d="
		M436.2,151.6c0.5,6.5,9,19.1,18.9,22.9"/>
	<path fill="none" stroke="#000000" stroke-width="1.5" stroke-linecap="round" stroke-linejoin="round" stroke-miterlimit="10" d="
		M422.5,161.3c4.1,9.1,5,20.9,16.4,28"/>
	<path fill="none" stroke="#000000" stroke-width="1.5" stroke-linecap="round" stroke-linejoin="round" stroke-miterlimit="10" d="
		M405.2,171.7c1.8,8.8,4.9,24.2,19.3,30.2"/>
	<path fill="none" stroke="#000000" stroke-width="1.5" stroke-linecap="round" stroke-linejoin="round" stroke-miterlimit="10" d="
		M385.6,181.5c1.6,10.5,11.3,29.8,19.6,34.6"/>
	<path fill="none" stroke="#000000" stroke-width="1.5" stroke-linecap="round" stroke-linejoin="round" stroke-miterlimit="10" d="
		M369.1,188.9c1.1,8.7,1.5,27.2,18.7,37.9"/>
	<path fill="none" stroke="#000000" stroke-width="1.5" stroke-linecap="round" stroke-linejoin="round" stroke-miterlimit="10" d="
		M352.7,198.2c0.2,8.1,2.4,26.6,15.2,38.5"/>
	<path fill="none" stroke="#000000" stroke-width="1.5" stroke-linecap="round" stroke-linejoin="round" stroke-miterlimit="10" d="
		M85,299.8c7-8,20.5-20.6,32.6-27.4c12.1-6.8,22.6-13,25.7-15.1c3.2-2.2,7.7-12.7,21.2-27.8c13.4-15.2,29.9-22.7,33.4-21"/>
	<path fill="none" stroke="#000000" stroke-width="1.5" stroke-linecap="round" stroke-linejoin="round" stroke-miterlimit="10" d="
		M191.1,257.3c-9.5,15.1-22.7,26.8-35.2,35.9c-12.5,9.1-52,30.2-66.4,33.6"/>
	<path fill="none" stroke="#000000" stroke-width="1.5" stroke-linecap="round" stroke-linejoin="round" stroke-miterlimit="10" d="
		M92.3,292.1c7.1,5.9,14.3,20.9,10.3,29.9"/>
	<path fill="none" stroke="#000000" stroke-width="1.5" stroke-linecap="round" stroke-linejoin="round" stroke-miterlimit="10" d="
		M103.6,282c9.9,5.9,21.1,19.6,18.6,30.6"/>
	<path fill="none" stroke="#000000" stroke-width="1.5" stroke-linecap="round" stroke-linejoin="round" stroke-miterlimit="10" d="
		M122.6,269.6c11.4,10.1,19.2,22.3,17.5,33.4"/>
	<path fill="none" stroke="#000000" stroke-width="1.5" stroke-linecap="round" stroke-linejoin="round" stroke-miterlimit="10" d="
		M139.3,259.8c9.5,5.8,20.2,12.7,24,27.7"/>
	<path fill="none" stroke="#000000" stroke-width="1.5" stroke-linecap="round" stroke-linejoin="round" stroke-miterlimit="10" d="
		M154.7,241.7c9.2,4.3,22.6,11.8,26.5,28.9"/>
	<path fill="none" stroke="#000000" stroke-width="1.5" stroke-linecap="round" stroke-linejoin="round" stroke-miterlimit="10" d="
		M171.7,222.3c8.8,2.7,18.4,14.4,19.9,22.2"/>
	<path fill="none" stroke="#000000" stroke-width="1.5" stroke-linecap="round" stroke-linejoin="round" stroke-miterlimit="10" d="
		M72.5,304.2c0,0-8.3,7.6-12.1,8s-5.1-8.3-5.1-8.3s3.3-7.3,6.9-10.2c3.6-2.9,19.9-6,23,7c2.7,3.6,7.5,19.1,4.2,26.1
		c-4.9,10.5-27.1,8.4-30.8,8.4c-5.3,0-16.9,2.9-22.7-7.2c-5.8-10-6.2-18.5-1.3-22.1s10.8-4.1,20.4-5.3c0,0,1.1,0.1,2.7-1.1"/>
	
		<line fill="none" stroke="#000000" stroke-width="1.5" stroke-linecap="round" stroke-linejoin="round" stroke-miterlimit="10" x1="62" y1="327.6" x2="38.6" y2="331.4"/>
	
		<line fill="none" stroke="#000000" stroke-width="1.5" stroke-linecap="round" stroke-linejoin="round" stroke-miterlimit="10" x1="61.9" y1="317.9" x2="33" y2="322"/>
	<path fill="none" stroke="#000000" stroke-width="1.5" stroke-linecap="round" stroke-linejoin="round" stroke-miterlimit="10" d="
		M56.3,307.7c-5.3,0.2-24.8,4.1-24.8,4.1"/>
	<g>
		<path fill="none" stroke="#000000" stroke-linecap="round" stroke-linejoin="round" stroke-miterlimit="10" d="M226.5,236.5
			c3.2-4,8.2-1.4,9.7,1.4c1.5,2.7,0.7,8.3-2.1,9.9s-8.1-0.4-8.1-0.4s-0.2,7.2,0.3,8.9c-2.9,0.5-4.5,0-4.5,0s0.2-9.8,0-14.9
			s-0.4-6.6-0.4-6.6l4.8-0.2L226.5,236.5z"/>
		<path fill="none" stroke="#000000" stroke-linecap="round" stroke-linejoin="round" stroke-miterlimit="10" d="M227.6,239.3
			c0-0.8,2.5-2,4.1-0.3s0.4,7.6-2.1,7.2C227.2,245.7,227.4,244,227.6,239.3z"/>
		<path fill="none" stroke="#000000" stroke-linecap="round" stroke-linejoin="round" stroke-miterlimit="10" d="M239.5,243.3
			c2.3,0,4.6,0,4.6,0s-0.4,10.6-0.2,11.6c-1.7,0.9-4.4,0-4.4,0C238.3,251.4,239.8,244.9,239.5,243.3z"/>
		<path fill="none" stroke="#000000" stroke-linecap="round" stroke-linejoin="round" stroke-miterlimit="10" d="M239.7,240.4
			c1.9,1.5,4.4,0.8,4.4,0.8c0-2.5,0.9-3.4-0.3-4.8c-1.3-1.4-4.3-0.3-4.3-0.3S238.8,239.4,239.7,240.4z"/>
		<path fill="none" stroke="#000000" stroke-linecap="round" stroke-linejoin="round" stroke-miterlimit="10" d="M247,239.6
			c0.3,4.1-0.2,19.2,0.1,21c2.6,0.4,4.5,0,4.5,0s-0.2-4.7,0-9.3c3.9,0.6,7.5-0.1,8-5.7c0.4-5.6-5.1-7.2-8.3-5.5c-0.1-1-0.1-1-0.1-1
			L247,239.6z"/>
		<path fill="none" stroke="#000000" stroke-linecap="round" stroke-linejoin="round" stroke-miterlimit="10" d="M251.5,243.2
			c2.6-1.4,3.7-0.2,3.7,1.9c0,2.1-1.8,4.8-3.3,4C251.1,246.7,251.5,243.2,251.5,243.2z"/>
		<path fill="none" stroke="#000000" stroke-linecap="round" stroke-linejoin="round" stroke-miterlimit="10" d="M262.1,244.3
			c1.4-3.4,6.4-4.8,9.8-2.3s3.1,10.4,0,12.2s-8.5,0.5-9.5-2.5C261.5,248.6,261.4,245.7,262.1,244.3z"/>
		<path fill="none" stroke="#000000" stroke-linecap="round" stroke-linejoin="round" stroke-miterlimit="10" d="M266.8,243.8
			c0.4-1.1,2.6-0.2,2.6,2.8c0,3,0.8,6.2-0.9,6.2C266.9,252.9,265.6,247,266.8,243.8z"/>
	</g>
</g>
</svg>
