<svg width="50" height="50" viewBox="0 0 50 50" fill="none" xmlns="http://www.w3.org/2000/svg">
<rect width="50" height="50" rx="8" fill="#4169E1"/>
<path d="M30.617 26.3937C31.104 26.1838 31.431 25.6228 31.431 24.999C31.431 24.3752 31.104 23.8142 30.619 23.6043L28.389 22.6342C27.3041 22.1646 26.3188 21.4112 25.5038 20.4278C24.6887 19.4445 24.0642 18.2557 23.675 16.9467L22.871 14.2562C22.785 13.97 22.6282 13.7225 22.4218 13.5473C22.2154 13.3721 21.9694 13.2776 21.717 13.2765C21.201 13.2765 20.736 13.6699 20.56 14.2562L19.757 16.9467C19.3679 18.256 18.7433 19.4449 17.928 20.4283C17.1128 21.4117 16.1272 22.165 15.042 22.6342L12.814 23.6043C12.327 23.8154 12 24.3752 12 24.999C12 25.6228 12.327 26.1826 12.812 26.3937L15.042 27.3638C16.127 27.8332 17.1124 28.5866 17.9274 29.57C18.7424 30.5533 19.3669 31.7422 19.756 33.0512L20.56 35.743C20.735 36.3281 21.2 36.7215 21.716 36.7215C22.232 36.7215 22.697 36.3269 22.871 35.7418L23.675 33.0512C24.0642 31.7423 24.6887 30.5535 25.5038 29.5702C26.3188 28.5868 27.3041 27.8333 28.389 27.3638L30.617 26.3937ZM27.711 25.0931C26.3489 25.6824 25.1118 26.6283 24.0886 27.8628C23.0654 29.0973 22.2815 30.5898 21.793 32.2332L21.715 32.4938L21.637 32.2332C21.1482 30.59 20.3642 29.0977 19.341 27.8633C18.3178 26.6288 17.0809 25.6828 15.719 25.0931L15.504 24.999L15.72 24.9049C17.0821 24.3156 18.3192 23.3697 19.3424 22.1352C20.3656 20.9007 21.1496 19.4082 21.638 17.7648L21.716 17.5042L21.794 17.7648C22.2824 19.408 23.0662 20.9004 24.0893 22.1349C25.1123 23.3694 26.3491 24.3153 27.711 24.9049L27.927 24.999L27.711 25.0931ZM27.185 14.699L28.314 15.1901C28.795 15.3983 29.2318 15.7324 29.5932 16.1683C29.9545 16.6043 30.2314 17.1313 30.404 17.7117L30.81 19.0726C30.969 19.6059 31.391 19.9642 31.86 19.9642C32.329 19.9642 32.752 19.6059 32.91 19.0738L33.317 17.7117C33.4894 17.1312 33.7662 16.6041 34.1276 16.1681C34.489 15.7321 34.9259 15.3981 35.407 15.1901L36.537 14.699C36.976 14.5072 37.273 13.9992 37.274 13.4358C37.275 12.8724 36.981 12.362 36.537 12.1666L35.407 11.6755C34.9261 11.4671 34.4893 11.133 34.128 10.6971C33.7666 10.2611 33.4897 9.73414 33.317 9.1539L32.91 7.79174C32.8315 7.53197 32.6888 7.30759 32.501 7.14904C32.3133 6.9905 32.0897 6.90546 31.8605 6.90546C31.6313 6.90546 31.4077 6.9905 31.22 7.14904C31.0322 7.30759 30.8895 7.53197 30.811 7.79174L30.404 9.1539C30.2314 9.73422 29.9545 10.2613 29.5932 10.6972C29.2318 11.1332 28.795 11.4673 28.314 11.6755L27.182 12.1678C26.742 12.3608 26.446 12.8712 26.447 13.4358C26.448 14.0004 26.745 14.5084 27.185 14.699ZM31.861 11.0698C32.3337 12.048 33.0083 12.8618 33.819 13.4322C33.0083 14.0026 32.3337 14.8164 31.861 15.7945C31.388 14.8166 30.7135 14.0029 29.903 13.4322C30.7133 12.8612 31.3877 12.0475 31.861 11.0698ZM36.536 35.299L35.407 34.8079C34.9261 34.5996 34.4893 34.2654 34.128 33.8295C33.7666 33.3935 33.4897 32.8666 33.317 32.2863L32.91 30.9242C32.8313 30.6645 32.6884 30.4403 32.5006 30.2819C32.3128 30.1235 32.0891 30.0385 31.86 30.0385C31.6309 30.0385 31.4072 30.1235 31.2194 30.2819C31.0316 30.4403 30.8887 30.6645 30.81 30.9242L30.403 32.2863C30.2306 32.8668 29.9538 33.3939 29.5924 33.8299C29.231 34.2659 28.7941 34.5999 28.313 34.8079L27.185 35.2978C26.744 35.4884 26.447 35.9975 26.446 36.5622C26.445 37.1268 26.74 37.6372 27.184 37.8314L28.313 38.3225C28.7942 38.5303 29.2312 38.8643 29.5926 39.3003C29.9539 39.7363 30.2307 40.2636 30.403 40.8441L30.809 42.205C30.8872 42.4656 31.03 42.6907 31.218 42.8498C31.406 43.009 31.63 43.0945 31.8596 43.0946C32.0893 43.0947 32.3134 43.0095 32.5015 42.8506C32.6896 42.6916 32.8326 42.4667 32.911 42.2062L33.318 40.8441C33.4907 40.2639 33.7676 39.7369 34.129 39.3009C34.4903 38.865 34.9271 38.5309 35.408 38.3225L36.542 37.8302C36.981 37.636 37.276 37.1268 37.275 36.5622C37.274 35.9975 36.976 35.4908 36.536 35.299ZM31.861 38.9282C31.3883 37.95 30.7137 37.1362 29.903 36.5658C30.7135 35.9951 31.388 35.1814 31.861 34.2035C32.334 35.1814 33.0085 35.9951 33.819 36.5658C33.0085 37.1365 32.334 37.9503 31.861 38.9282Z" fill="white"/>
</svg>
