<svg width="36" height="36" viewBox="0 0 36 36" fill="none" xmlns="http://www.w3.org/2000/svg">
<rect x="0.75" y="0.75" width="34.4995" height="34.5" rx="6.25" stroke="#4169E1" stroke-width="1.5"/>
<path d="M22.9996 8H12.9999C10.2502 8 8 10.2502 8 12.9999V23.0001C8 25.7491 10.2502 28 12.9999 28H22.9996C25.7493 28 27.9995 25.7491 27.9995 23.0001V12.9999C27.9995 10.2502 25.7493 8 22.9996 8ZM26.3328 23.0001C26.3328 24.8376 24.8381 26.3333 22.9996 26.3333H12.9999C11.1622 26.3333 9.66671 24.8376 9.66671 23.0001V12.9999C9.66671 11.1619 11.1622 9.66671 12.9999 9.66671H22.9996C24.8381 9.66671 26.3328 11.1619 26.3328 12.9999V23.0001Z" fill="#4169E1"/>
<path d="M23.4172 13.8327C24.1075 13.8327 24.6672 13.2731 24.6672 12.5827C24.6672 11.8924 24.1075 11.3328 23.4172 11.3328C22.7269 11.3328 22.1672 11.8924 22.1672 12.5827C22.1672 13.2731 22.7269 13.8327 23.4172 13.8327Z" fill="#4169E1"/>
<path d="M17.9998 13C15.2378 13 12.9999 15.2382 12.9999 17.9999C12.9999 20.7606 15.2378 23.0002 17.9998 23.0002C20.7609 23.0002 22.9996 20.7606 22.9996 17.9999C22.9996 15.2382 20.7609 13 17.9998 13ZM17.9998 21.3335C16.159 21.3335 14.6666 19.8411 14.6666 17.9999C14.6666 16.1587 16.159 14.6667 17.9998 14.6667C19.8405 14.6667 21.3329 16.1587 21.3329 17.9999C21.3329 19.8411 19.8405 21.3335 17.9998 21.3335Z" fill="#4169E1"/>
</svg>
