<svg width="1539" height="650" viewBox="0 0 1539 650" fill="none" xmlns="http://www.w3.org/2000/svg">
<path d="M1455.66 0.5C1455.66 0.514485 1455.67 0.529457 1455.67 0.544922C1455.77 0.786184 1455.91 1.14685 1456.09 1.62305C1456.45 2.57552 1456.99 3.99158 1457.68 5.84277C1459.07 9.54569 1461.07 14.9916 1463.55 21.9629C1468.49 35.9063 1475.33 55.9512 1482.87 80.3506C1497.94 129.151 1515.83 195.367 1527.09 265.037C1538.35 334.714 1542.97 407.812 1531.54 470.393C1520.19 532.481 1493.06 584.146 1441 611.905L1439.77 612.557C1384.45 641.434 1336.54 651.286 1286.48 648.999C1236.4 646.711 1184.15 632.274 1120.15 612.522C993.182 573.342 898.28 534.692 751.022 524.243L747.534 524.001C657.339 517.909 574.784 532.046 498.74 548.32C422.671 564.6 353.174 583.002 288.98 585.5C224.81 587.997 152.62 572.64 96.4492 556.645C68.3688 548.648 44.3022 540.495 27.2559 534.342C18.7329 531.265 11.9652 528.689 7.3291 526.882C5.01112 525.978 3.22579 525.267 2.02051 524.782C1.41787 524.54 0.960144 524.353 0.65332 524.228C0.597034 524.205 0.546093 524.183 0.5 524.164V0.5H1455.66Z" fill="#4169E1" stroke="#4169E1"/>
</svg>
