<svg width="158" height="157" viewBox="0 0 158 157" fill="none" xmlns="http://www.w3.org/2000/svg">
<g filter="url(#filter0_d_3_125)">
<rect x="12" y="10" width="133.824" height="133" rx="66.5" fill="white"/>
<path d="M47.0532 56.7004L45.9083 53.4811C45.7975 53.1695 45.6261 52.8827 45.404 52.6371C45.182 52.3915 44.9135 52.1919 44.6141 52.0497C44.3146 51.9074 43.9899 51.8254 43.6587 51.8082C43.3274 51.7911 42.9959 51.8391 42.6833 51.9496C42.0518 52.1727 41.5352 52.6367 41.247 53.2395C41.1043 53.538 41.022 53.8615 41.0048 54.1917C40.9875 54.5219 41.0357 54.8522 41.1466 55.1638L44.2377 63.8545C44.6421 64.988 45.8426 65.6656 47.0204 65.4994L56.6222 63.9577C57.2732 63.8397 57.8517 63.4719 58.2337 62.9334C58.6156 62.3949 58.7704 61.7286 58.6648 61.0775C58.5593 60.4265 58.2018 59.8427 57.6691 59.4515C57.1364 59.0603 56.4711 58.8929 55.8159 58.9852L51.0972 59.7409C53.9953 54.9181 58.1 50.9278 63.0098 48.1606C67.9195 45.3933 73.466 43.9439 79.1064 43.9542C97.112 43.9542 111.761 58.557 111.761 76.5024C111.761 77.1705 112.027 77.8113 112.501 78.2837C112.975 78.7561 113.618 79.0215 114.289 79.0215C114.959 79.0215 115.602 78.7561 116.076 78.2837C116.55 77.8113 116.816 77.1705 116.816 76.5024C116.498 38.7071 67.0884 24.8601 47.0532 56.7004ZM113.578 89.1454C113.369 88.5985 112.98 88.1384 112.474 87.8398C111.969 87.5412 111.378 87.4216 110.796 87.5005L101.196 89.0421C100.545 89.1602 99.9668 89.528 99.5848 90.0665C99.2029 90.605 99.0481 91.2713 99.1537 91.9223C99.2592 92.5733 99.6167 93.1571 100.149 93.5483C100.682 93.9396 101.347 94.107 102.003 94.0147L106.719 93.259C103.821 98.0821 99.7164 102.073 94.8066 104.84C89.8968 107.607 84.3501 109.056 78.7096 109.046C60.704 109.046 46.0549 94.4454 46.0549 76.4999C46.0549 75.8318 45.7886 75.1911 45.3146 74.7187C44.8406 74.2463 44.1978 73.9809 43.5275 73.9809C42.8571 73.9809 42.2143 74.2463 41.7403 74.7187C41.2663 75.1911 41 75.8318 41 76.4999C41.3185 114.293 90.7301 128.14 110.763 96.2994C111.47 97.9418 111.852 101.317 114.289 101.196C115.989 101.222 117.278 99.4356 116.672 97.836L113.578 89.1454Z" fill="#1F1F1F"/>
<path d="M79.0435 62.002C76.8036 62.0041 74.656 62.9021 73.0719 64.4988C71.4877 66.0956 70.5962 68.2609 70.5931 70.5196V72.5247H67.9883C67.461 72.5247 66.9553 72.7359 66.5824 73.1119C66.2095 73.488 66 73.998 66 74.5297V89.9949C66 90.5267 66.2095 91.0367 66.5824 91.4127C66.9553 91.7887 67.461 92 67.9883 92H90.0986C90.626 92 91.1317 91.7887 91.5046 91.4127C91.8775 91.0367 92.087 90.5267 92.087 89.9949V74.5317C92.087 74 91.8775 73.49 91.5046 73.1139C91.1317 72.7379 90.626 72.5267 90.0986 72.5267H87.4939V70.5196C87.4913 68.2605 86.6001 66.0948 85.0158 64.4976C83.4316 62.9003 81.2837 62.0021 79.0435 62V62.002ZM74.5697 70.5196C74.5697 68.0333 76.5779 66.0102 79.0435 66.0102C81.509 66.0102 83.5172 68.0333 83.5172 70.5196V72.5247H74.5697V70.5196ZM88.1103 76.5348V87.9898H69.9767V76.5368L88.1103 76.5348Z" fill="#1F1F1F"/>
</g>
<defs>
<filter id="filter0_d_3_125" x="0" y="0" width="157.824" height="157" filterUnits="userSpaceOnUse" color-interpolation-filters="sRGB">
<feFlood flood-opacity="0" result="BackgroundImageFix"/>
<feColorMatrix in="SourceAlpha" type="matrix" values="0 0 0 0 0 0 0 0 0 0 0 0 0 0 0 0 0 0 127 0" result="hardAlpha"/>
<feOffset dy="2"/>
<feGaussianBlur stdDeviation="6"/>
<feComposite in2="hardAlpha" operator="out"/>
<feColorMatrix type="matrix" values="0 0 0 0 0 0 0 0 0 0 0 0 0 0 0 0 0 0 0.08 0"/>
<feBlend mode="normal" in2="BackgroundImageFix" result="effect1_dropShadow_3_125"/>
<feBlend mode="normal" in="SourceGraphic" in2="effect1_dropShadow_3_125" result="shape"/>
</filter>
</defs>
</svg>
