<svg width="28" height="22" viewBox="0 0 28 22" fill="none" xmlns="http://www.w3.org/2000/svg">
<path d="M0.985138 6H5.08614C6.21914 11.291 13.7521 11.29 14.8841 6H26.9851C28.2891 5.981 28.3081 4.023 26.9851 4H14.8841C14.4191 1.721 12.4001 0 9.98514 0C7.57014 0 5.55114 1.721 5.08614 4H0.985138C-0.321862 4.02 -0.334862 5.977 0.985138 6ZM9.98514 2C13.9411 2.104 13.9401 7.897 9.98514 8C6.02914 7.896 6.03014 2.103 9.98514 2ZM26.9851 16H22.8841C21.7511 10.709 14.2181 10.71 13.0861 16H0.985138C-0.318862 16.019 -0.337862 17.977 0.985138 18H13.0861C13.5511 20.279 15.5701 22 17.9851 22C20.4001 22 22.4191 20.279 22.8841 18H26.9851C28.2921 17.98 28.3051 16.022 26.9851 16ZM17.9851 20C14.0291 19.896 14.0301 14.103 17.9851 14C21.9411 14.104 21.9401 19.897 17.9851 20Z" fill="#4169E1"/>
</svg>
